<?xml version="1.0" encoding="UTF-8" standalone="no"?>
<!DOCTYPE svg PUBLIC "-//W3C//DTD SVG 1.1//EN"
 "http://www.w3.org/Graphics/SVG/1.1/DTD/svg11.dtd">
<!-- Generated by graphviz version 12.2.1 (20241206.2353)
 -->
<!-- Title: Tree Pages: 1 -->
<svg width="2325pt" height="570pt"
 viewBox="0.00 0.00 2325.12 570.00" xmlns="http://www.w3.org/2000/svg" xmlns:xlink="http://www.w3.org/1999/xlink">
<g id="graph0" class="graph" transform="scale(1 1) rotate(0) translate(4 566)">
<title>Tree</title>
<polygon fill="white" stroke="none" points="-4,4 -4,-566 2321.12,-566 2321.12,4 -4,4"/>
<!-- 0 -->
<g id="node1" class="node">
<title>0</title>
<path fill="#79edaa" stroke="black" d="M1245.38,-562C1245.38,-562 1107.88,-562 1107.88,-562 1101.88,-562 1095.88,-556 1095.88,-550 1095.88,-550 1095.88,-487.25 1095.88,-487.25 1095.88,-481.25 1101.88,-475.25 1107.88,-475.25 1107.88,-475.25 1245.38,-475.25 1245.38,-475.25 1251.38,-475.25 1257.38,-481.25 1257.38,-487.25 1257.38,-487.25 1257.38,-550 1257.38,-550 1257.38,-556 1251.38,-562 1245.38,-562"/>
<text text-anchor="start" x="1127.12" y="-544.7" font-family="Helvetica,sans-Serif" font-size="14.00">alcohol ≤ 10.625</text>
<text text-anchor="start" x="1133.12" y="-528.95" font-family="Helvetica,sans-Serif" font-size="14.00">entropy = 0.97</text>
<text text-anchor="start" x="1128.25" y="-513.2" font-family="Helvetica,sans-Serif" font-size="14.00">samples = 3918</text>
<text text-anchor="start" x="1103.88" y="-497.45" font-family="Helvetica,sans-Serif" font-size="14.00">value = [146, 2924, 848]</text>
<text text-anchor="start" x="1126" y="-481.7" font-family="Helvetica,sans-Serif" font-size="14.00">class = Standard</text>
</g>
<!-- 1 -->
<g id="node2" class="node">
<title>1</title>
<path fill="#57e994" stroke="black" d="M960.38,-439.25C960.38,-439.25 822.88,-439.25 822.88,-439.25 816.88,-439.25 810.88,-433.25 810.88,-427.25 810.88,-427.25 810.88,-364.5 810.88,-364.5 810.88,-358.5 816.88,-352.5 822.88,-352.5 822.88,-352.5 960.38,-352.5 960.38,-352.5 966.38,-352.5 972.38,-358.5 972.38,-364.5 972.38,-364.5 972.38,-427.25 972.38,-427.25 972.38,-433.25 966.38,-439.25 960.38,-439.25"/>
<text text-anchor="start" x="825.25" y="-421.95" font-family="Helvetica,sans-Serif" font-size="14.00">volatile acidity ≤ 0.212</text>
<text text-anchor="start" x="844.38" y="-406.2" font-family="Helvetica,sans-Serif" font-size="14.00">entropy = 0.702</text>
<text text-anchor="start" x="843.25" y="-390.45" font-family="Helvetica,sans-Serif" font-size="14.00">samples = 2267</text>
<text text-anchor="start" x="818.88" y="-374.7" font-family="Helvetica,sans-Serif" font-size="14.00">value = [106, 1957, 204]</text>
<text text-anchor="start" x="841" y="-358.95" font-family="Helvetica,sans-Serif" font-size="14.00">class = Standard</text>
</g>
<!-- 0&#45;&gt;1 -->
<g id="edge1" class="edge">
<title>0&#45;&gt;1</title>
<path fill="none" stroke="black" d="M1095.72,-483.35C1060.67,-468.5 1019.46,-451.04 983.29,-435.71"/>
<polygon fill="black" stroke="black" points="984.7,-432.51 974.13,-431.83 981.97,-438.95 984.7,-432.51"/>
<text text-anchor="middle" x="982.12" y="-448.99" font-family="Helvetica,sans-Serif" font-size="14.00">True</text>
</g>
<!-- 16 -->
<g id="node17" class="node">
<title>16</title>
<path fill="#bff7d7" stroke="black" d="M1515.12,-439.25C1515.12,-439.25 1376.12,-439.25 1376.12,-439.25 1370.12,-439.25 1364.12,-433.25 1364.12,-427.25 1364.12,-427.25 1364.12,-364.5 1364.12,-364.5 1364.12,-358.5 1370.12,-352.5 1376.12,-352.5 1376.12,-352.5 1515.12,-352.5 1515.12,-352.5 1521.12,-352.5 1527.12,-358.5 1527.12,-364.5 1527.12,-364.5 1527.12,-427.25 1527.12,-427.25 1527.12,-433.25 1521.12,-439.25 1515.12,-439.25"/>
<text text-anchor="start" x="1372.12" y="-421.95" font-family="Helvetica,sans-Serif" font-size="14.00">free sulfur dioxide ≤ 11.5</text>
<text text-anchor="start" x="1398.75" y="-406.2" font-family="Helvetica,sans-Serif" font-size="14.00">entropy = 1.112</text>
<text text-anchor="start" x="1397.25" y="-390.45" font-family="Helvetica,sans-Serif" font-size="14.00">samples = 1651</text>
<text text-anchor="start" x="1380.38" y="-374.7" font-family="Helvetica,sans-Serif" font-size="14.00">value = [40, 967, 644]</text>
<text text-anchor="start" x="1395" y="-358.95" font-family="Helvetica,sans-Serif" font-size="14.00">class = Standard</text>
</g>
<!-- 0&#45;&gt;16 -->
<g id="edge16" class="edge">
<title>0&#45;&gt;16</title>
<path fill="none" stroke="black" d="M1257.7,-481.23C1287.86,-467.69 1322.3,-452.23 1353.39,-438.28"/>
<polygon fill="black" stroke="black" points="1354.72,-441.52 1362.41,-434.23 1351.85,-435.13 1354.72,-441.52"/>
<text text-anchor="middle" x="1354.9" y="-451.55" font-family="Helvetica,sans-Serif" font-size="14.00">False</text>
</g>
<!-- 2 -->
<g id="node3" class="node">
<title>2</title>
<path fill="#74eda7" stroke="black" d="M479.88,-316.5C479.88,-316.5 357.38,-316.5 357.38,-316.5 351.38,-316.5 345.38,-310.5 345.38,-304.5 345.38,-304.5 345.38,-241.75 345.38,-241.75 345.38,-235.75 351.38,-229.75 357.38,-229.75 357.38,-229.75 479.88,-229.75 479.88,-229.75 485.88,-229.75 491.88,-235.75 491.88,-241.75 491.88,-241.75 491.88,-304.5 491.88,-304.5 491.88,-310.5 485.88,-316.5 479.88,-316.5"/>
<text text-anchor="start" x="376.62" y="-299.2" font-family="Helvetica,sans-Serif" font-size="14.00">alcohol ≤ 9.05</text>
<text text-anchor="start" x="378.88" y="-283.45" font-family="Helvetica,sans-Serif" font-size="14.00">entropy = 0.9</text>
<text text-anchor="start" x="374" y="-267.7" font-family="Helvetica,sans-Serif" font-size="14.00">samples = 616</text>
<text text-anchor="start" x="353.38" y="-251.95" font-family="Helvetica,sans-Serif" font-size="14.00">value = [15, 471, 130]</text>
<text text-anchor="start" x="368" y="-236.2" font-family="Helvetica,sans-Serif" font-size="14.00">class = Standard</text>
</g>
<!-- 1&#45;&gt;2 -->
<g id="edge2" class="edge">
<title>1&#45;&gt;2</title>
<path fill="none" stroke="black" d="M810.58,-374.19C724.88,-352.31 590.3,-317.95 503.26,-295.73"/>
<polygon fill="black" stroke="black" points="504.38,-292.41 493.83,-293.32 502.65,-299.19 504.38,-292.41"/>
</g>
<!-- 9 -->
<g id="node10" class="node">
<title>9</title>
<path fill="#4ee88e" stroke="black" d="M954,-316.5C954,-316.5 829.25,-316.5 829.25,-316.5 823.25,-316.5 817.25,-310.5 817.25,-304.5 817.25,-304.5 817.25,-241.75 817.25,-241.75 817.25,-235.75 823.25,-229.75 829.25,-229.75 829.25,-229.75 954,-229.75 954,-229.75 960,-229.75 966,-235.75 966,-241.75 966,-241.75 966,-304.5 966,-304.5 966,-310.5 960,-316.5 954,-316.5"/>
<text text-anchor="start" x="825.25" y="-299.2" font-family="Helvetica,sans-Serif" font-size="14.00">volatile acidity ≤ 0.515</text>
<text text-anchor="start" x="844.38" y="-283.45" font-family="Helvetica,sans-Serif" font-size="14.00">entropy = 0.568</text>
<text text-anchor="start" x="843.25" y="-267.7" font-family="Helvetica,sans-Serif" font-size="14.00">samples = 1651</text>
<text text-anchor="start" x="826.38" y="-251.95" font-family="Helvetica,sans-Serif" font-size="14.00">value = [91, 1486, 74]</text>
<text text-anchor="start" x="841" y="-236.2" font-family="Helvetica,sans-Serif" font-size="14.00">class = Standard</text>
</g>
<!-- 1&#45;&gt;9 -->
<g id="edge9" class="edge">
<title>1&#45;&gt;9</title>
<path fill="none" stroke="black" d="M891.62,-352.3C891.62,-344.46 891.62,-336.17 891.62,-328.04"/>
<polygon fill="black" stroke="black" points="895.13,-328.23 891.63,-318.23 888.13,-328.23 895.13,-328.23"/>
</g>
<!-- 3 -->
<g id="node4" class="node">
<title>3</title>
<path fill="#ffffff" stroke="black" d="M247.62,-193.75C247.62,-193.75 147.62,-193.75 147.62,-193.75 141.62,-193.75 135.62,-187.75 135.62,-181.75 135.62,-181.75 135.62,-119 135.62,-119 135.62,-113 141.62,-107 147.62,-107 147.62,-107 247.62,-107 247.62,-107 253.62,-107 259.62,-113 259.62,-119 259.62,-119 259.62,-181.75 259.62,-181.75 259.62,-187.75 253.62,-193.75 247.62,-193.75"/>
<text text-anchor="start" x="146.25" y="-176.45" font-family="Helvetica,sans-Serif" font-size="14.00">chlorides ≤ 0.049</text>
<text text-anchor="start" x="150.38" y="-160.7" font-family="Helvetica,sans-Serif" font-size="14.00">entropy = 1.141</text>
<text text-anchor="start" x="156.75" y="-144.95" font-family="Helvetica,sans-Serif" font-size="14.00">samples = 82</text>
<text text-anchor="start" x="143.62" y="-129.2" font-family="Helvetica,sans-Serif" font-size="14.00">value = [2, 40, 40]</text>
<text text-anchor="start" x="147" y="-113.45" font-family="Helvetica,sans-Serif" font-size="14.00">class = Standard</text>
</g>
<!-- 2&#45;&gt;3 -->
<g id="edge3" class="edge">
<title>2&#45;&gt;3</title>
<path fill="none" stroke="black" d="M345.04,-231.92C320.76,-218.65 293.79,-203.92 269.63,-190.72"/>
<polygon fill="black" stroke="black" points="271.6,-187.81 261.15,-186.08 268.25,-193.95 271.6,-187.81"/>
</g>
<!-- 6 -->
<g id="node7" class="node">
<title>6</title>
<path fill="#67eb9e" stroke="black" d="M476.12,-193.75C476.12,-193.75 361.12,-193.75 361.12,-193.75 355.12,-193.75 349.12,-187.75 349.12,-181.75 349.12,-181.75 349.12,-119 349.12,-119 349.12,-113 355.12,-107 361.12,-107 361.12,-107 476.12,-107 476.12,-107 482.12,-107 488.12,-113 488.12,-119 488.12,-119 488.12,-181.75 488.12,-181.75 488.12,-187.75 482.12,-193.75 476.12,-193.75"/>
<text text-anchor="start" x="365.38" y="-176.45" font-family="Helvetica,sans-Serif" font-size="14.00">sulphates ≤ 0.815</text>
<text text-anchor="start" x="371.38" y="-160.7" font-family="Helvetica,sans-Serif" font-size="14.00">entropy = 0.813</text>
<text text-anchor="start" x="374" y="-144.95" font-family="Helvetica,sans-Serif" font-size="14.00">samples = 534</text>
<text text-anchor="start" x="357.12" y="-129.2" font-family="Helvetica,sans-Serif" font-size="14.00">value = [13, 431, 90]</text>
<text text-anchor="start" x="368" y="-113.45" font-family="Helvetica,sans-Serif" font-size="14.00">class = Standard</text>
</g>
<!-- 2&#45;&gt;6 -->
<g id="edge6" class="edge">
<title>2&#45;&gt;6</title>
<path fill="none" stroke="black" d="M418.62,-229.55C418.62,-221.71 418.62,-213.42 418.62,-205.29"/>
<polygon fill="black" stroke="black" points="422.13,-205.48 418.63,-195.48 415.13,-205.48 422.13,-205.48"/>
</g>
<!-- 4 -->
<g id="node5" class="node">
<title>4</title>
<path fill="#4ee88e" stroke="black" d="M105.25,-71C105.25,-71 12,-71 12,-71 6,-71 0,-65 0,-59 0,-59 0,-12 0,-12 0,-6 6,0 12,0 12,0 105.25,0 105.25,0 111.25,0 117.25,-6 117.25,-12 117.25,-12 117.25,-59 117.25,-59 117.25,-65 111.25,-71 105.25,-71"/>
<text text-anchor="start" x="11.38" y="-53.7" font-family="Helvetica,sans-Serif" font-size="14.00">entropy = 0.561</text>
<text text-anchor="start" x="17.75" y="-37.95" font-family="Helvetica,sans-Serif" font-size="14.00">samples = 30</text>
<text text-anchor="start" x="8.38" y="-22.2" font-family="Helvetica,sans-Serif" font-size="14.00">value = [1, 27, 2]</text>
<text text-anchor="start" x="8" y="-6.45" font-family="Helvetica,sans-Serif" font-size="14.00">class = Standard</text>
</g>
<!-- 3&#45;&gt;4 -->
<g id="edge4" class="edge">
<title>3&#45;&gt;4</title>
<path fill="none" stroke="black" d="M145.08,-106.7C133.56,-97.35 121.38,-87.46 109.91,-78.15"/>
<polygon fill="black" stroke="black" points="112.45,-75.7 102.48,-72.11 108.04,-81.13 112.45,-75.7"/>
</g>
<!-- 5 -->
<g id="node6" class="node">
<title>5</title>
<path fill="#ae80ee" stroke="black" d="M247.62,-71C247.62,-71 147.62,-71 147.62,-71 141.62,-71 135.62,-65 135.62,-59 135.62,-59 135.62,-12 135.62,-12 135.62,-6 141.62,0 147.62,0 147.62,0 247.62,0 247.62,0 253.62,0 259.62,-6 259.62,-12 259.62,-12 259.62,-59 259.62,-59 259.62,-65 253.62,-71 247.62,-71"/>
<text text-anchor="start" x="154.12" y="-53.7" font-family="Helvetica,sans-Serif" font-size="14.00">entropy = 0.94</text>
<text text-anchor="start" x="156.75" y="-37.95" font-family="Helvetica,sans-Serif" font-size="14.00">samples = 52</text>
<text text-anchor="start" x="143.62" y="-22.2" font-family="Helvetica,sans-Serif" font-size="14.00">value = [1, 13, 38]</text>
<text text-anchor="start" x="160.5" y="-6.45" font-family="Helvetica,sans-Serif" font-size="14.00">class = High</text>
</g>
<!-- 3&#45;&gt;5 -->
<g id="edge5" class="edge">
<title>3&#45;&gt;5</title>
<path fill="none" stroke="black" d="M197.62,-106.7C197.62,-98.82 197.62,-90.55 197.62,-82.57"/>
<polygon fill="black" stroke="black" points="201.13,-82.67 197.63,-72.67 194.13,-82.67 201.13,-82.67"/>
</g>
<!-- 7 -->
<g id="node8" class="node">
<title>7</title>
<path fill="#64eb9c" stroke="black" d="M405.12,-71C405.12,-71 290.12,-71 290.12,-71 284.12,-71 278.12,-65 278.12,-59 278.12,-59 278.12,-12 278.12,-12 278.12,-6 284.12,0 290.12,0 290.12,0 405.12,0 405.12,0 411.12,0 417.12,-6 417.12,-12 417.12,-12 417.12,-59 417.12,-59 417.12,-65 411.12,-71 405.12,-71"/>
<text text-anchor="start" x="300.38" y="-53.7" font-family="Helvetica,sans-Serif" font-size="14.00">entropy = 0.789</text>
<text text-anchor="start" x="303" y="-37.95" font-family="Helvetica,sans-Serif" font-size="14.00">samples = 527</text>
<text text-anchor="start" x="286.12" y="-22.2" font-family="Helvetica,sans-Serif" font-size="14.00">value = [13, 431, 83]</text>
<text text-anchor="start" x="297" y="-6.45" font-family="Helvetica,sans-Serif" font-size="14.00">class = Standard</text>
</g>
<!-- 6&#45;&gt;7 -->
<g id="edge7" class="edge">
<title>6&#45;&gt;7</title>
<path fill="none" stroke="black" d="M391.78,-106.7C386.48,-98.27 380.9,-89.39 375.55,-80.9"/>
<polygon fill="black" stroke="black" points="378.52,-79.04 370.23,-72.44 372.59,-82.77 378.52,-79.04"/>
</g>
<!-- 8 -->
<g id="node9" class="node">
<title>8</title>
<path fill="#8139e5" stroke="black" d="M532.12,-71C532.12,-71 447.12,-71 447.12,-71 441.12,-71 435.12,-65 435.12,-59 435.12,-59 435.12,-12 435.12,-12 435.12,-6 441.12,0 447.12,0 447.12,0 532.12,0 532.12,0 538.12,0 544.12,-6 544.12,-12 544.12,-12 544.12,-59 544.12,-59 544.12,-65 538.12,-71 532.12,-71"/>
<text text-anchor="start" x="449.88" y="-53.7" font-family="Helvetica,sans-Serif" font-size="14.00">entropy = 0.0</text>
<text text-anchor="start" x="452.5" y="-37.95" font-family="Helvetica,sans-Serif" font-size="14.00">samples = 7</text>
<text text-anchor="start" x="443.12" y="-22.2" font-family="Helvetica,sans-Serif" font-size="14.00">value = [0, 0, 7]</text>
<text text-anchor="start" x="452.5" y="-6.45" font-family="Helvetica,sans-Serif" font-size="14.00">class = High</text>
</g>
<!-- 6&#45;&gt;8 -->
<g id="edge8" class="edge">
<title>6&#45;&gt;8</title>
<path fill="none" stroke="black" d="M445.47,-106.7C450.77,-98.27 456.35,-89.39 461.7,-80.9"/>
<polygon fill="black" stroke="black" points="464.66,-82.77 467.02,-72.44 458.73,-79.04 464.66,-82.77"/>
</g>
<!-- 10 -->
<g id="node11" class="node">
<title>10</title>
<path fill="#4be78d" stroke="black" d="M872.5,-193.75C872.5,-193.75 732.75,-193.75 732.75,-193.75 726.75,-193.75 720.75,-187.75 720.75,-181.75 720.75,-181.75 720.75,-119 720.75,-119 720.75,-113 726.75,-107 732.75,-107 732.75,-107 872.5,-107 872.5,-107 878.5,-107 884.5,-113 884.5,-119 884.5,-119 884.5,-181.75 884.5,-181.75 884.5,-187.75 878.5,-193.75 872.5,-193.75"/>
<text text-anchor="start" x="728.75" y="-176.45" font-family="Helvetica,sans-Serif" font-size="14.00">free sulfur dioxide ≤ 15.5</text>
<text text-anchor="start" x="755.38" y="-160.7" font-family="Helvetica,sans-Serif" font-size="14.00">entropy = 0.521</text>
<text text-anchor="start" x="754.25" y="-144.95" font-family="Helvetica,sans-Serif" font-size="14.00">samples = 1575</text>
<text text-anchor="start" x="737.38" y="-129.2" font-family="Helvetica,sans-Serif" font-size="14.00">value = [66, 1435, 74]</text>
<text text-anchor="start" x="752" y="-113.45" font-family="Helvetica,sans-Serif" font-size="14.00">class = Standard</text>
</g>
<!-- 9&#45;&gt;10 -->
<g id="edge10" class="edge">
<title>9&#45;&gt;10</title>
<path fill="none" stroke="black" d="M860.25,-229.55C853.93,-220.99 847.23,-211.89 840.72,-203.06"/>
<polygon fill="black" stroke="black" points="843.67,-201.16 834.92,-195.19 838.03,-205.31 843.67,-201.16"/>
</g>
<!-- 13 -->
<g id="node14" class="node">
<title>13</title>
<path fill="#9af2bf" stroke="black" d="M1046.75,-193.75C1046.75,-193.75 914.5,-193.75 914.5,-193.75 908.5,-193.75 902.5,-187.75 902.5,-181.75 902.5,-181.75 902.5,-119 902.5,-119 902.5,-113 908.5,-107 914.5,-107 914.5,-107 1046.75,-107 1046.75,-107 1052.75,-107 1058.75,-113 1058.75,-119 1058.75,-119 1058.75,-181.75 1058.75,-181.75 1058.75,-187.75 1052.75,-193.75 1046.75,-193.75"/>
<text text-anchor="start" x="910.5" y="-176.45" font-family="Helvetica,sans-Serif" font-size="14.00">free sulfur dioxide ≤ 8.5</text>
<text text-anchor="start" x="933.38" y="-160.7" font-family="Helvetica,sans-Serif" font-size="14.00">entropy = 0.914</text>
<text text-anchor="start" x="939.75" y="-144.95" font-family="Helvetica,sans-Serif" font-size="14.00">samples = 76</text>
<text text-anchor="start" x="926.62" y="-129.2" font-family="Helvetica,sans-Serif" font-size="14.00">value = [25, 51, 0]</text>
<text text-anchor="start" x="930" y="-113.45" font-family="Helvetica,sans-Serif" font-size="14.00">class = Standard</text>
</g>
<!-- 9&#45;&gt;13 -->
<g id="edge13" class="edge">
<title>9&#45;&gt;13</title>
<path fill="none" stroke="black" d="M923,-229.55C929.32,-220.99 936.02,-211.89 942.53,-203.06"/>
<polygon fill="black" stroke="black" points="945.22,-205.31 948.33,-195.19 939.58,-201.16 945.22,-205.31"/>
</g>
<!-- 11 -->
<g id="node12" class="node">
<title>11</title>
<path fill="#74eda6" stroke="black" d="M715.25,-71C715.25,-71 574,-71 574,-71 568,-71 562,-65 562,-59 562,-59 562,-12 562,-12 562,-6 568,0 574,0 574,0 715.25,0 715.25,0 721.25,0 727.25,-6 727.25,-12 727.25,-12 727.25,-59 727.25,-59 727.25,-65 721.25,-71 715.25,-71"/>
<text text-anchor="start" x="597.38" y="-53.7" font-family="Helvetica,sans-Serif" font-size="14.00">entropy = 0.951</text>
<text text-anchor="start" x="600" y="-37.95" font-family="Helvetica,sans-Serif" font-size="14.00">samples = 143</text>
<text text-anchor="start" x="570" y="-22.2" font-family="Helvetica,sans-Serif" font-size="14.00">value = [28.0, 109.0, 6.0]</text>
<text text-anchor="start" x="594" y="-6.45" font-family="Helvetica,sans-Serif" font-size="14.00">class = Standard</text>
</g>
<!-- 10&#45;&gt;11 -->
<g id="edge11" class="edge">
<title>10&#45;&gt;11</title>
<path fill="none" stroke="black" d="M742.89,-106.7C729.74,-97.31 715.83,-87.37 702.75,-78.02"/>
<polygon fill="black" stroke="black" points="704.79,-75.18 694.62,-72.22 700.72,-80.88 704.79,-75.18"/>
</g>
<!-- 12 -->
<g id="node13" class="node">
<title>12</title>
<path fill="#48e78b" stroke="black" d="M879.88,-71C879.88,-71 757.38,-71 757.38,-71 751.38,-71 745.38,-65 745.38,-59 745.38,-59 745.38,-12 745.38,-12 745.38,-6 751.38,0 757.38,0 757.38,0 879.88,0 879.88,0 885.88,0 891.88,-6 891.88,-12 891.88,-12 891.88,-59 891.88,-59 891.88,-65 885.88,-71 879.88,-71"/>
<text text-anchor="start" x="775.12" y="-53.7" font-family="Helvetica,sans-Serif" font-size="14.00">entropy = 0.45</text>
<text text-anchor="start" x="770.25" y="-37.95" font-family="Helvetica,sans-Serif" font-size="14.00">samples = 1432</text>
<text text-anchor="start" x="753.38" y="-22.2" font-family="Helvetica,sans-Serif" font-size="14.00">value = [38, 1326, 68]</text>
<text text-anchor="start" x="768" y="-6.45" font-family="Helvetica,sans-Serif" font-size="14.00">class = Standard</text>
</g>
<!-- 10&#45;&gt;12 -->
<g id="edge12" class="edge">
<title>10&#45;&gt;12</title>
<path fill="none" stroke="black" d="M808.67,-106.7C809.8,-98.72 810.99,-90.36 812.13,-82.29"/>
<polygon fill="black" stroke="black" points="815.56,-83.05 813.5,-72.66 808.63,-82.07 815.56,-83.05"/>
</g>
<!-- 14 -->
<g id="node15" class="node">
<title>14</title>
<path fill="#e58139" stroke="black" d="M1007.12,-71C1007.12,-71 922.12,-71 922.12,-71 916.12,-71 910.12,-65 910.12,-59 910.12,-59 910.12,-12 910.12,-12 910.12,-6 916.12,0 922.12,0 922.12,0 1007.12,0 1007.12,0 1013.12,0 1019.12,-6 1019.12,-12 1019.12,-12 1019.12,-59 1019.12,-59 1019.12,-65 1013.12,-71 1007.12,-71"/>
<text text-anchor="start" x="924.88" y="-53.7" font-family="Helvetica,sans-Serif" font-size="14.00">entropy = 0.0</text>
<text text-anchor="start" x="927.5" y="-37.95" font-family="Helvetica,sans-Serif" font-size="14.00">samples = 4</text>
<text text-anchor="start" x="918.12" y="-22.2" font-family="Helvetica,sans-Serif" font-size="14.00">value = [4, 0, 0]</text>
<text text-anchor="start" x="929" y="-6.45" font-family="Helvetica,sans-Serif" font-size="14.00">class = Low</text>
</g>
<!-- 13&#45;&gt;14 -->
<g id="edge14" class="edge">
<title>13&#45;&gt;14</title>
<path fill="none" stroke="black" d="M974.58,-106.7C973.45,-98.72 972.26,-90.36 971.12,-82.29"/>
<polygon fill="black" stroke="black" points="974.62,-82.07 969.75,-72.66 967.69,-83.05 974.62,-82.07"/>
</g>
<!-- 15 -->
<g id="node16" class="node">
<title>15</title>
<path fill="#8bf0b5" stroke="black" d="M1149.62,-71C1149.62,-71 1049.62,-71 1049.62,-71 1043.62,-71 1037.62,-65 1037.62,-59 1037.62,-59 1037.62,-12 1037.62,-12 1037.62,-6 1043.62,0 1049.62,0 1049.62,0 1149.62,0 1149.62,0 1155.62,0 1161.62,-6 1161.62,-12 1161.62,-12 1161.62,-59 1161.62,-59 1161.62,-65 1155.62,-71 1149.62,-71"/>
<text text-anchor="start" x="1052.38" y="-53.7" font-family="Helvetica,sans-Serif" font-size="14.00">entropy = 0.871</text>
<text text-anchor="start" x="1058.75" y="-37.95" font-family="Helvetica,sans-Serif" font-size="14.00">samples = 72</text>
<text text-anchor="start" x="1045.62" y="-22.2" font-family="Helvetica,sans-Serif" font-size="14.00">value = [21, 51, 0]</text>
<text text-anchor="start" x="1049" y="-6.45" font-family="Helvetica,sans-Serif" font-size="14.00">class = Standard</text>
</g>
<!-- 13&#45;&gt;15 -->
<g id="edge15" class="edge">
<title>13&#45;&gt;15</title>
<path fill="none" stroke="black" d="M1025.61,-106.7C1035.18,-97.62 1045.29,-88.04 1054.85,-78.97"/>
<polygon fill="black" stroke="black" points="1057.14,-81.62 1061.99,-72.2 1052.32,-76.54 1057.14,-81.62"/>
</g>
<!-- 17 -->
<g id="node18" class="node">
<title>17</title>
<path fill="#89f0b4" stroke="black" d="M1500.88,-316.5C1500.88,-316.5 1390.38,-316.5 1390.38,-316.5 1384.38,-316.5 1378.38,-310.5 1378.38,-304.5 1378.38,-304.5 1378.38,-241.75 1378.38,-241.75 1378.38,-235.75 1384.38,-229.75 1390.38,-229.75 1390.38,-229.75 1500.88,-229.75 1500.88,-229.75 1506.88,-229.75 1512.88,-235.75 1512.88,-241.75 1512.88,-241.75 1512.88,-304.5 1512.88,-304.5 1512.88,-310.5 1506.88,-316.5 1500.88,-316.5"/>
<text text-anchor="start" x="1386.38" y="-299.2" font-family="Helvetica,sans-Serif" font-size="14.00">residual sugar ≤ 5.6</text>
<text text-anchor="start" x="1398.38" y="-283.45" font-family="Helvetica,sans-Serif" font-size="14.00">entropy = 1.206</text>
<text text-anchor="start" x="1401" y="-267.7" font-family="Helvetica,sans-Serif" font-size="14.00">samples = 106</text>
<text text-anchor="start" x="1387.88" y="-251.95" font-family="Helvetica,sans-Serif" font-size="14.00">value = [22, 72, 12]</text>
<text text-anchor="start" x="1395" y="-236.2" font-family="Helvetica,sans-Serif" font-size="14.00">class = Standard</text>
</g>
<!-- 16&#45;&gt;17 -->
<g id="edge17" class="edge">
<title>16&#45;&gt;17</title>
<path fill="none" stroke="black" d="M1445.62,-352.3C1445.62,-344.46 1445.62,-336.17 1445.62,-328.04"/>
<polygon fill="black" stroke="black" points="1449.13,-328.23 1445.63,-318.23 1442.13,-328.23 1449.13,-328.23"/>
</g>
<!-- 24 -->
<g id="node25" class="node">
<title>24</title>
<path fill="#c6f8db" stroke="black" d="M1911.88,-316.5C1911.88,-316.5 1789.38,-316.5 1789.38,-316.5 1783.38,-316.5 1777.38,-310.5 1777.38,-304.5 1777.38,-304.5 1777.38,-241.75 1777.38,-241.75 1777.38,-235.75 1783.38,-229.75 1789.38,-229.75 1789.38,-229.75 1911.88,-229.75 1911.88,-229.75 1917.88,-229.75 1923.88,-235.75 1923.88,-241.75 1923.88,-241.75 1923.88,-304.5 1923.88,-304.5 1923.88,-310.5 1917.88,-316.5 1911.88,-316.5"/>
<text text-anchor="start" x="1801.5" y="-299.2" font-family="Helvetica,sans-Serif" font-size="14.00">alcohol ≤ 11.742</text>
<text text-anchor="start" x="1803.38" y="-283.45" font-family="Helvetica,sans-Serif" font-size="14.00">entropy = 1.059</text>
<text text-anchor="start" x="1802.25" y="-267.7" font-family="Helvetica,sans-Serif" font-size="14.00">samples = 1545</text>
<text text-anchor="start" x="1785.38" y="-251.95" font-family="Helvetica,sans-Serif" font-size="14.00">value = [18, 895, 632]</text>
<text text-anchor="start" x="1800" y="-236.2" font-family="Helvetica,sans-Serif" font-size="14.00">class = Standard</text>
</g>
<!-- 16&#45;&gt;24 -->
<g id="edge24" class="edge">
<title>16&#45;&gt;24</title>
<path fill="none" stroke="black" d="M1527.58,-370.44C1596.91,-349.77 1695.88,-320.26 1765.97,-299.37"/>
<polygon fill="black" stroke="black" points="1766.93,-302.73 1775.51,-296.52 1764.93,-296.02 1766.93,-302.73"/>
</g>
<!-- 18 -->
<g id="node19" class="node">
<title>18</title>
<path fill="#89f0b4" stroke="black" d="M1434.75,-193.75C1434.75,-193.75 1302.5,-193.75 1302.5,-193.75 1296.5,-193.75 1290.5,-187.75 1290.5,-181.75 1290.5,-181.75 1290.5,-119 1290.5,-119 1290.5,-113 1296.5,-107 1302.5,-107 1302.5,-107 1434.75,-107 1434.75,-107 1440.75,-107 1446.75,-113 1446.75,-119 1446.75,-119 1446.75,-181.75 1446.75,-181.75 1446.75,-187.75 1440.75,-193.75 1434.75,-193.75"/>
<text text-anchor="start" x="1298.5" y="-176.45" font-family="Helvetica,sans-Serif" font-size="14.00">free sulfur dioxide ≤ 9.5</text>
<text text-anchor="start" x="1321.38" y="-160.7" font-family="Helvetica,sans-Serif" font-size="14.00">entropy = 1.104</text>
<text text-anchor="start" x="1327.75" y="-144.95" font-family="Helvetica,sans-Serif" font-size="14.00">samples = 85</text>
<text text-anchor="start" x="1314.62" y="-129.2" font-family="Helvetica,sans-Serif" font-size="14.00">value = [21, 59, 5]</text>
<text text-anchor="start" x="1318" y="-113.45" font-family="Helvetica,sans-Serif" font-size="14.00">class = Standard</text>
</g>
<!-- 17&#45;&gt;18 -->
<g id="edge18" class="edge">
<title>17&#45;&gt;18</title>
<path fill="none" stroke="black" d="M1418.48,-229.55C1413.13,-221.17 1407.46,-212.28 1401.94,-203.61"/>
<polygon fill="black" stroke="black" points="1404.93,-201.8 1396.6,-195.25 1399.03,-205.56 1404.93,-201.8"/>
</g>
<!-- 21 -->
<g id="node22" class="node">
<title>21</title>
<path fill="#aaf4c9" stroke="black" d="M1570.25,-193.75C1570.25,-193.75 1477,-193.75 1477,-193.75 1471,-193.75 1465,-187.75 1465,-181.75 1465,-181.75 1465,-119 1465,-119 1465,-113 1471,-107 1477,-107 1477,-107 1570.25,-107 1570.25,-107 1576.25,-107 1582.25,-113 1582.25,-119 1582.25,-119 1582.25,-181.75 1582.25,-181.75 1582.25,-187.75 1576.25,-193.75 1570.25,-193.75"/>
<text text-anchor="start" x="1477.88" y="-176.45" font-family="Helvetica,sans-Serif" font-size="14.00">density ≤ 0.994</text>
<text text-anchor="start" x="1476.38" y="-160.7" font-family="Helvetica,sans-Serif" font-size="14.00">entropy = 1.166</text>
<text text-anchor="start" x="1482.75" y="-144.95" font-family="Helvetica,sans-Serif" font-size="14.00">samples = 21</text>
<text text-anchor="start" x="1473.38" y="-129.2" font-family="Helvetica,sans-Serif" font-size="14.00">value = [1, 13, 7]</text>
<text text-anchor="start" x="1473" y="-113.45" font-family="Helvetica,sans-Serif" font-size="14.00">class = Standard</text>
</g>
<!-- 17&#45;&gt;21 -->
<g id="edge21" class="edge">
<title>17&#45;&gt;21</title>
<path fill="none" stroke="black" d="M1473.12,-229.55C1478.54,-221.17 1484.28,-212.28 1489.88,-203.61"/>
<polygon fill="black" stroke="black" points="1492.8,-205.54 1495.29,-195.24 1486.92,-201.74 1492.8,-205.54"/>
</g>
<!-- 19 -->
<g id="node20" class="node">
<title>19</title>
<path fill="#bbf6d4" stroke="black" d="M1291.62,-71C1291.62,-71 1191.62,-71 1191.62,-71 1185.62,-71 1179.62,-65 1179.62,-59 1179.62,-59 1179.62,-12 1179.62,-12 1179.62,-6 1185.62,0 1191.62,0 1191.62,0 1291.62,0 1291.62,0 1297.62,0 1303.62,-6 1303.62,-12 1303.62,-12 1303.62,-59 1303.62,-59 1303.62,-65 1297.62,-71 1291.62,-71"/>
<text text-anchor="start" x="1194.38" y="-53.7" font-family="Helvetica,sans-Serif" font-size="14.00">entropy = 1.164</text>
<text text-anchor="start" x="1200.75" y="-37.95" font-family="Helvetica,sans-Serif" font-size="14.00">samples = 51</text>
<text text-anchor="start" x="1187.62" y="-22.2" font-family="Helvetica,sans-Serif" font-size="14.00">value = [19, 30, 2]</text>
<text text-anchor="start" x="1191" y="-6.45" font-family="Helvetica,sans-Serif" font-size="14.00">class = Standard</text>
</g>
<!-- 18&#45;&gt;19 -->
<g id="edge19" class="edge">
<title>18&#45;&gt;19</title>
<path fill="none" stroke="black" d="M1320.61,-106.7C1310.29,-97.53 1299.4,-87.85 1289.1,-78.7"/>
<polygon fill="black" stroke="black" points="1291.55,-76.19 1281.75,-72.16 1286.9,-81.42 1291.55,-76.19"/>
</g>
<!-- 20 -->
<g id="node21" class="node">
<title>20</title>
<path fill="#59e995" stroke="black" d="M1427.25,-71C1427.25,-71 1334,-71 1334,-71 1328,-71 1322,-65 1322,-59 1322,-59 1322,-12 1322,-12 1322,-6 1328,0 1334,0 1334,0 1427.25,0 1427.25,0 1433.25,0 1439.25,-6 1439.25,-12 1439.25,-12 1439.25,-59 1439.25,-59 1439.25,-65 1433.25,-71 1427.25,-71"/>
<text text-anchor="start" x="1333.38" y="-53.7" font-family="Helvetica,sans-Serif" font-size="14.00">entropy = 0.745</text>
<text text-anchor="start" x="1339.75" y="-37.95" font-family="Helvetica,sans-Serif" font-size="14.00">samples = 34</text>
<text text-anchor="start" x="1330.38" y="-22.2" font-family="Helvetica,sans-Serif" font-size="14.00">value = [2, 29, 3]</text>
<text text-anchor="start" x="1330" y="-6.45" font-family="Helvetica,sans-Serif" font-size="14.00">class = Standard</text>
</g>
<!-- 18&#45;&gt;20 -->
<g id="edge20" class="edge">
<title>18&#45;&gt;20</title>
<path fill="none" stroke="black" d="M1373.16,-106.7C1374,-98.82 1374.88,-90.55 1375.73,-82.57"/>
<polygon fill="black" stroke="black" points="1379.2,-82.98 1376.78,-72.66 1372.24,-82.24 1379.2,-82.98"/>
</g>
<!-- 22 -->
<g id="node23" class="node">
<title>22</title>
<path fill="#a572ec" stroke="black" d="M1555.88,-71C1555.88,-71 1469.38,-71 1469.38,-71 1463.38,-71 1457.38,-65 1457.38,-59 1457.38,-59 1457.38,-12 1457.38,-12 1457.38,-6 1463.38,0 1469.38,0 1469.38,0 1555.88,0 1555.88,0 1561.88,0 1567.88,-6 1567.88,-12 1567.88,-12 1567.88,-59 1567.88,-59 1567.88,-65 1561.88,-71 1555.88,-71"/>
<text text-anchor="start" x="1465.38" y="-53.7" font-family="Helvetica,sans-Serif" font-size="14.00">entropy = 0.764</text>
<text text-anchor="start" x="1475.5" y="-37.95" font-family="Helvetica,sans-Serif" font-size="14.00">samples = 9</text>
<text text-anchor="start" x="1466.12" y="-22.2" font-family="Helvetica,sans-Serif" font-size="14.00">value = [0, 2, 7]</text>
<text text-anchor="start" x="1475.5" y="-6.45" font-family="Helvetica,sans-Serif" font-size="14.00">class = High</text>
</g>
<!-- 21&#45;&gt;22 -->
<g id="edge22" class="edge">
<title>21&#45;&gt;22</title>
<path fill="none" stroke="black" d="M1519.47,-106.7C1518.7,-98.82 1517.89,-90.55 1517.11,-82.57"/>
<polygon fill="black" stroke="black" points="1520.6,-82.28 1516.15,-72.66 1513.64,-82.96 1520.6,-82.28"/>
</g>
<!-- 23 -->
<g id="node24" class="node">
<title>23</title>
<path fill="#4be78c" stroke="black" d="M1691.25,-71C1691.25,-71 1598,-71 1598,-71 1592,-71 1586,-65 1586,-59 1586,-59 1586,-12 1586,-12 1586,-6 1592,0 1598,0 1598,0 1691.25,0 1691.25,0 1697.25,0 1703.25,-6 1703.25,-12 1703.25,-12 1703.25,-59 1703.25,-59 1703.25,-65 1697.25,-71 1691.25,-71"/>
<text text-anchor="start" x="1597.38" y="-53.7" font-family="Helvetica,sans-Serif" font-size="14.00">entropy = 0.414</text>
<text text-anchor="start" x="1603.75" y="-37.95" font-family="Helvetica,sans-Serif" font-size="14.00">samples = 12</text>
<text text-anchor="start" x="1594.75" y="-22.2" font-family="Helvetica,sans-Serif" font-size="14.00">value = [1, 11, 0]</text>
<text text-anchor="start" x="1594" y="-6.45" font-family="Helvetica,sans-Serif" font-size="14.00">class = Standard</text>
</g>
<!-- 21&#45;&gt;23 -->
<g id="edge23" class="edge">
<title>21&#45;&gt;23</title>
<path fill="none" stroke="black" d="M1569.37,-106.7C1579.1,-97.62 1589.37,-88.04 1599.1,-78.97"/>
<polygon fill="black" stroke="black" points="1601.44,-81.57 1606.37,-72.19 1596.67,-76.45 1601.44,-81.57"/>
</g>
<!-- 25 -->
<g id="node26" class="node">
<title>25</title>
<path fill="#96f1bc" stroke="black" d="M1928.75,-193.75C1928.75,-193.75 1772.5,-193.75 1772.5,-193.75 1766.5,-193.75 1760.5,-187.75 1760.5,-181.75 1760.5,-181.75 1760.5,-119 1760.5,-119 1760.5,-113 1766.5,-107 1772.5,-107 1772.5,-107 1928.75,-107 1928.75,-107 1934.75,-107 1940.75,-113 1940.75,-119 1940.75,-119 1940.75,-181.75 1940.75,-181.75 1940.75,-187.75 1934.75,-193.75 1928.75,-193.75"/>
<text text-anchor="start" x="1788" y="-176.45" font-family="Helvetica,sans-Serif" font-size="14.00">volatile acidity ≤ 0.48</text>
<text text-anchor="start" x="1807.12" y="-160.7" font-family="Helvetica,sans-Serif" font-size="14.00">entropy = 1.01</text>
<text text-anchor="start" x="1806" y="-144.95" font-family="Helvetica,sans-Serif" font-size="14.00">samples = 846</text>
<text text-anchor="start" x="1768.5" y="-129.2" font-family="Helvetica,sans-Serif" font-size="14.00">value = [15.0, 570.0, 261.0]</text>
<text text-anchor="start" x="1800" y="-113.45" font-family="Helvetica,sans-Serif" font-size="14.00">class = Standard</text>
</g>
<!-- 24&#45;&gt;25 -->
<g id="edge25" class="edge">
<title>24&#45;&gt;25</title>
<path fill="none" stroke="black" d="M1850.62,-229.55C1850.62,-221.71 1850.62,-213.42 1850.62,-205.29"/>
<polygon fill="black" stroke="black" points="1854.13,-205.48 1850.63,-195.48 1847.13,-205.48 1854.13,-205.48"/>
</g>
<!-- 28 -->
<g id="node29" class="node">
<title>28</title>
<path fill="#f0e7fc" stroke="black" d="M2153,-193.75C2153,-193.75 2028.25,-193.75 2028.25,-193.75 2022.25,-193.75 2016.25,-187.75 2016.25,-181.75 2016.25,-181.75 2016.25,-119 2016.25,-119 2016.25,-113 2022.25,-107 2028.25,-107 2028.25,-107 2153,-107 2153,-107 2159,-107 2165,-113 2165,-119 2165,-119 2165,-181.75 2165,-181.75 2165,-187.75 2159,-193.75 2153,-193.75"/>
<text text-anchor="start" x="2024.25" y="-176.45" font-family="Helvetica,sans-Serif" font-size="14.00">volatile acidity ≤ 0.275</text>
<text text-anchor="start" x="2043.38" y="-160.7" font-family="Helvetica,sans-Serif" font-size="14.00">entropy = 1.032</text>
<text text-anchor="start" x="2046" y="-144.95" font-family="Helvetica,sans-Serif" font-size="14.00">samples = 699</text>
<text text-anchor="start" x="2029.12" y="-129.2" font-family="Helvetica,sans-Serif" font-size="14.00">value = [3, 325, 371]</text>
<text text-anchor="start" x="2053.5" y="-113.45" font-family="Helvetica,sans-Serif" font-size="14.00">class = High</text>
</g>
<!-- 24&#45;&gt;28 -->
<g id="edge28" class="edge">
<title>24&#45;&gt;28</title>
<path fill="none" stroke="black" d="M1924.26,-235.08C1950.04,-222.1 1979.2,-207.44 2005.82,-194.04"/>
<polygon fill="black" stroke="black" points="2007.17,-197.28 2014.53,-189.66 2004.02,-191.03 2007.17,-197.28"/>
</g>
<!-- 26 -->
<g id="node27" class="node">
<title>26</title>
<path fill="#97f1bd" stroke="black" d="M1855.88,-71C1855.88,-71 1733.38,-71 1733.38,-71 1727.38,-71 1721.38,-65 1721.38,-59 1721.38,-59 1721.38,-12 1721.38,-12 1721.38,-6 1727.38,0 1733.38,0 1733.38,0 1855.88,0 1855.88,0 1861.88,0 1867.88,-6 1867.88,-12 1867.88,-12 1867.88,-59 1867.88,-59 1867.88,-65 1861.88,-71 1855.88,-71"/>
<text text-anchor="start" x="1747.38" y="-53.7" font-family="Helvetica,sans-Serif" font-size="14.00">entropy = 0.984</text>
<text text-anchor="start" x="1750" y="-37.95" font-family="Helvetica,sans-Serif" font-size="14.00">samples = 833</text>
<text text-anchor="start" x="1729.38" y="-22.2" font-family="Helvetica,sans-Serif" font-size="14.00">value = [10, 562, 261]</text>
<text text-anchor="start" x="1744" y="-6.45" font-family="Helvetica,sans-Serif" font-size="14.00">class = Standard</text>
</g>
<!-- 25&#45;&gt;26 -->
<g id="edge26" class="edge">
<title>25&#45;&gt;26</title>
<path fill="none" stroke="black" d="M1829.45,-106.7C1825.36,-98.45 1821.06,-89.78 1816.93,-81.46"/>
<polygon fill="black" stroke="black" points="1820.07,-79.92 1812.49,-72.51 1813.8,-83.03 1820.07,-79.92"/>
</g>
<!-- 27 -->
<g id="node28" class="node">
<title>27</title>
<path fill="#b5f5d0" stroke="black" d="M1991.25,-71C1991.25,-71 1898,-71 1898,-71 1892,-71 1886,-65 1886,-59 1886,-59 1886,-12 1886,-12 1886,-6 1892,0 1898,0 1898,0 1991.25,0 1991.25,0 1997.25,0 2003.25,-6 2003.25,-12 2003.25,-12 2003.25,-59 2003.25,-59 2003.25,-65 1997.25,-71 1991.25,-71"/>
<text text-anchor="start" x="1897.38" y="-53.7" font-family="Helvetica,sans-Serif" font-size="14.00">entropy = 0.961</text>
<text text-anchor="start" x="1903.75" y="-37.95" font-family="Helvetica,sans-Serif" font-size="14.00">samples = 13</text>
<text text-anchor="start" x="1898.12" y="-22.2" font-family="Helvetica,sans-Serif" font-size="14.00">value = [5, 8, 0]</text>
<text text-anchor="start" x="1894" y="-6.45" font-family="Helvetica,sans-Serif" font-size="14.00">class = Standard</text>
</g>
<!-- 25&#45;&gt;27 -->
<g id="edge27" class="edge">
<title>25&#45;&gt;27</title>
<path fill="none" stroke="black" d="M1886.16,-106.7C1893.49,-97.9 1901.22,-88.62 1908.57,-79.8"/>
<polygon fill="black" stroke="black" points="1911.08,-82.24 1914.79,-72.32 1905.71,-77.76 1911.08,-82.24"/>
</g>
<!-- 29 -->
<g id="node30" class="node">
<title>29</title>
<path fill="#caf8dd" stroke="black" d="M2147.75,-71C2147.75,-71 2033.5,-71 2033.5,-71 2027.5,-71 2021.5,-65 2021.5,-59 2021.5,-59 2021.5,-12 2021.5,-12 2021.5,-6 2027.5,0 2033.5,0 2033.5,0 2147.75,0 2147.75,0 2153.75,0 2159.75,-6 2159.75,-12 2159.75,-12 2159.75,-59 2159.75,-59 2159.75,-65 2153.75,-71 2147.75,-71"/>
<text text-anchor="start" x="2043.38" y="-53.7" font-family="Helvetica,sans-Serif" font-size="14.00">entropy = 0.983</text>
<text text-anchor="start" x="2046" y="-37.95" font-family="Helvetica,sans-Serif" font-size="14.00">samples = 277</text>
<text text-anchor="start" x="2029.5" y="-22.2" font-family="Helvetica,sans-Serif" font-size="14.00">value = [0, 160, 117]</text>
<text text-anchor="start" x="2040" y="-6.45" font-family="Helvetica,sans-Serif" font-size="14.00">class = Standard</text>
</g>
<!-- 28&#45;&gt;29 -->
<g id="edge29" class="edge">
<title>28&#45;&gt;29</title>
<path fill="none" stroke="black" d="M2090.62,-106.7C2090.62,-98.82 2090.62,-90.55 2090.62,-82.57"/>
<polygon fill="black" stroke="black" points="2094.13,-82.67 2090.63,-72.67 2087.13,-82.67 2094.13,-82.67"/>
</g>
<!-- 30 -->
<g id="node31" class="node">
<title>30</title>
<path fill="#d3baf6" stroke="black" d="M2305.12,-71C2305.12,-71 2190.12,-71 2190.12,-71 2184.12,-71 2178.12,-65 2178.12,-59 2178.12,-59 2178.12,-12 2178.12,-12 2178.12,-6 2184.12,0 2190.12,0 2190.12,0 2305.12,0 2305.12,0 2311.12,0 2317.12,-6 2317.12,-12 2317.12,-12 2317.12,-59 2317.12,-59 2317.12,-65 2311.12,-71 2305.12,-71"/>
<text text-anchor="start" x="2200.38" y="-53.7" font-family="Helvetica,sans-Serif" font-size="14.00">entropy = 1.021</text>
<text text-anchor="start" x="2203" y="-37.95" font-family="Helvetica,sans-Serif" font-size="14.00">samples = 422</text>
<text text-anchor="start" x="2186.12" y="-22.2" font-family="Helvetica,sans-Serif" font-size="14.00">value = [3, 165, 254]</text>
<text text-anchor="start" x="2210.5" y="-6.45" font-family="Helvetica,sans-Serif" font-size="14.00">class = High</text>
</g>
<!-- 28&#45;&gt;30 -->
<g id="edge30" class="edge">
<title>28&#45;&gt;30</title>
<path fill="none" stroke="black" d="M2149.98,-106.7C2163.12,-97.26 2177.01,-87.27 2190.08,-77.87"/>
<polygon fill="black" stroke="black" points="2192.11,-80.72 2198.19,-72.04 2188.03,-75.04 2192.11,-80.72"/>
</g>
</g>
</svg>
