<?xml version="1.0" encoding="UTF-8" standalone="no"?>
<!DOCTYPE svg PUBLIC "-//W3C//DTD SVG 1.1//EN"
 "http://www.w3.org/Graphics/SVG/1.1/DTD/svg11.dtd">
<!-- Generated by graphviz version 12.2.1 (20241206.2353)
 -->
<!-- Title: Tree Pages: 1 -->
<svg width="1230pt" height="447pt"
 viewBox="0.00 0.00 1229.50 447.25" xmlns="http://www.w3.org/2000/svg" xmlns:xlink="http://www.w3.org/1999/xlink">
<g id="graph0" class="graph" transform="scale(1 1) rotate(0) translate(4 443.25)">
<title>Tree</title>
<polygon fill="white" stroke="none" points="-4,4 -4,-443.25 1225.5,-443.25 1225.5,4 -4,4"/>
<!-- 0 -->
<g id="node1" class="node">
<title>0</title>
<path fill="#79edaa" stroke="black" d="M646.75,-439.25C646.75,-439.25 509.25,-439.25 509.25,-439.25 503.25,-439.25 497.25,-433.25 497.25,-427.25 497.25,-427.25 497.25,-364.5 497.25,-364.5 497.25,-358.5 503.25,-352.5 509.25,-352.5 509.25,-352.5 646.75,-352.5 646.75,-352.5 652.75,-352.5 658.75,-358.5 658.75,-364.5 658.75,-364.5 658.75,-427.25 658.75,-427.25 658.75,-433.25 652.75,-439.25 646.75,-439.25"/>
<text text-anchor="start" x="528.5" y="-421.95" font-family="Helvetica,sans-Serif" font-size="14.00">alcohol ≤ 10.625</text>
<text text-anchor="start" x="534.5" y="-406.2" font-family="Helvetica,sans-Serif" font-size="14.00">entropy = 0.97</text>
<text text-anchor="start" x="529.62" y="-390.45" font-family="Helvetica,sans-Serif" font-size="14.00">samples = 3918</text>
<text text-anchor="start" x="505.25" y="-374.7" font-family="Helvetica,sans-Serif" font-size="14.00">value = [146, 2924, 848]</text>
<text text-anchor="start" x="527.38" y="-358.95" font-family="Helvetica,sans-Serif" font-size="14.00">class = Standard</text>
</g>
<!-- 1 -->
<g id="node2" class="node">
<title>1</title>
<path fill="#57e994" stroke="black" d="M501.75,-316.5C501.75,-316.5 364.25,-316.5 364.25,-316.5 358.25,-316.5 352.25,-310.5 352.25,-304.5 352.25,-304.5 352.25,-241.75 352.25,-241.75 352.25,-235.75 358.25,-229.75 364.25,-229.75 364.25,-229.75 501.75,-229.75 501.75,-229.75 507.75,-229.75 513.75,-235.75 513.75,-241.75 513.75,-241.75 513.75,-304.5 513.75,-304.5 513.75,-310.5 507.75,-316.5 501.75,-316.5"/>
<text text-anchor="start" x="366.62" y="-299.2" font-family="Helvetica,sans-Serif" font-size="14.00">volatile acidity ≤ 0.212</text>
<text text-anchor="start" x="385.75" y="-283.45" font-family="Helvetica,sans-Serif" font-size="14.00">entropy = 0.702</text>
<text text-anchor="start" x="384.62" y="-267.7" font-family="Helvetica,sans-Serif" font-size="14.00">samples = 2267</text>
<text text-anchor="start" x="360.25" y="-251.95" font-family="Helvetica,sans-Serif" font-size="14.00">value = [106, 1957, 204]</text>
<text text-anchor="start" x="382.38" y="-236.2" font-family="Helvetica,sans-Serif" font-size="14.00">class = Standard</text>
</g>
<!-- 0&#45;&gt;1 -->
<g id="edge1" class="edge">
<title>0&#45;&gt;1</title>
<path fill="none" stroke="black" d="M526.88,-352.3C515.83,-343.1 504.06,-333.3 492.72,-323.86"/>
<polygon fill="black" stroke="black" points="495.24,-321.4 485.31,-317.69 490.76,-326.78 495.24,-321.4"/>
<text text-anchor="middle" x="486.42" y="-336.19" font-family="Helvetica,sans-Serif" font-size="14.00">True</text>
</g>
<!-- 8 -->
<g id="node9" class="node">
<title>8</title>
<path fill="#bff7d7" stroke="black" d="M806.5,-316.5C806.5,-316.5 667.5,-316.5 667.5,-316.5 661.5,-316.5 655.5,-310.5 655.5,-304.5 655.5,-304.5 655.5,-241.75 655.5,-241.75 655.5,-235.75 661.5,-229.75 667.5,-229.75 667.5,-229.75 806.5,-229.75 806.5,-229.75 812.5,-229.75 818.5,-235.75 818.5,-241.75 818.5,-241.75 818.5,-304.5 818.5,-304.5 818.5,-310.5 812.5,-316.5 806.5,-316.5"/>
<text text-anchor="start" x="663.5" y="-299.2" font-family="Helvetica,sans-Serif" font-size="14.00">free sulfur dioxide ≤ 11.5</text>
<text text-anchor="start" x="690.12" y="-283.45" font-family="Helvetica,sans-Serif" font-size="14.00">entropy = 1.112</text>
<text text-anchor="start" x="688.62" y="-267.7" font-family="Helvetica,sans-Serif" font-size="14.00">samples = 1651</text>
<text text-anchor="start" x="671.75" y="-251.95" font-family="Helvetica,sans-Serif" font-size="14.00">value = [40, 967, 644]</text>
<text text-anchor="start" x="686.38" y="-236.2" font-family="Helvetica,sans-Serif" font-size="14.00">class = Standard</text>
</g>
<!-- 0&#45;&gt;8 -->
<g id="edge8" class="edge">
<title>0&#45;&gt;8</title>
<path fill="none" stroke="black" d="M634.06,-352.3C646.22,-343.07 659.18,-333.23 671.66,-323.75"/>
<polygon fill="black" stroke="black" points="673.59,-326.67 679.44,-317.84 669.36,-321.1 673.59,-326.67"/>
<text text-anchor="middle" x="677.26" y="-336.27" font-family="Helvetica,sans-Serif" font-size="14.00">False</text>
</g>
<!-- 2 -->
<g id="node3" class="node">
<title>2</title>
<path fill="#74eda7" stroke="black" d="M273.25,-193.75C273.25,-193.75 150.75,-193.75 150.75,-193.75 144.75,-193.75 138.75,-187.75 138.75,-181.75 138.75,-181.75 138.75,-119 138.75,-119 138.75,-113 144.75,-107 150.75,-107 150.75,-107 273.25,-107 273.25,-107 279.25,-107 285.25,-113 285.25,-119 285.25,-119 285.25,-181.75 285.25,-181.75 285.25,-187.75 279.25,-193.75 273.25,-193.75"/>
<text text-anchor="start" x="170" y="-176.45" font-family="Helvetica,sans-Serif" font-size="14.00">alcohol ≤ 9.05</text>
<text text-anchor="start" x="172.25" y="-160.7" font-family="Helvetica,sans-Serif" font-size="14.00">entropy = 0.9</text>
<text text-anchor="start" x="167.38" y="-144.95" font-family="Helvetica,sans-Serif" font-size="14.00">samples = 616</text>
<text text-anchor="start" x="146.75" y="-129.2" font-family="Helvetica,sans-Serif" font-size="14.00">value = [15, 471, 130]</text>
<text text-anchor="start" x="161.38" y="-113.45" font-family="Helvetica,sans-Serif" font-size="14.00">class = Standard</text>
</g>
<!-- 1&#45;&gt;2 -->
<g id="edge2" class="edge">
<title>1&#45;&gt;2</title>
<path fill="none" stroke="black" d="M354.77,-229.38C335.63,-218.93 315.08,-207.7 295.7,-197.1"/>
<polygon fill="black" stroke="black" points="297.46,-194.08 287.01,-192.36 294.11,-200.22 297.46,-194.08"/>
</g>
<!-- 5 -->
<g id="node6" class="node">
<title>5</title>
<path fill="#4ee88e" stroke="black" d="M495.38,-193.75C495.38,-193.75 370.62,-193.75 370.62,-193.75 364.62,-193.75 358.62,-187.75 358.62,-181.75 358.62,-181.75 358.62,-119 358.62,-119 358.62,-113 364.62,-107 370.62,-107 370.62,-107 495.38,-107 495.38,-107 501.38,-107 507.38,-113 507.38,-119 507.38,-119 507.38,-181.75 507.38,-181.75 507.38,-187.75 501.38,-193.75 495.38,-193.75"/>
<text text-anchor="start" x="366.62" y="-176.45" font-family="Helvetica,sans-Serif" font-size="14.00">volatile acidity ≤ 0.515</text>
<text text-anchor="start" x="385.75" y="-160.7" font-family="Helvetica,sans-Serif" font-size="14.00">entropy = 0.568</text>
<text text-anchor="start" x="384.62" y="-144.95" font-family="Helvetica,sans-Serif" font-size="14.00">samples = 1651</text>
<text text-anchor="start" x="367.75" y="-129.2" font-family="Helvetica,sans-Serif" font-size="14.00">value = [91, 1486, 74]</text>
<text text-anchor="start" x="382.38" y="-113.45" font-family="Helvetica,sans-Serif" font-size="14.00">class = Standard</text>
</g>
<!-- 1&#45;&gt;5 -->
<g id="edge5" class="edge">
<title>1&#45;&gt;5</title>
<path fill="none" stroke="black" d="M433,-229.55C433,-221.71 433,-213.42 433,-205.29"/>
<polygon fill="black" stroke="black" points="436.5,-205.48 433,-195.48 429.5,-205.48 436.5,-205.48"/>
</g>
<!-- 3 -->
<g id="node4" class="node">
<title>3</title>
<path fill="#ffffff" stroke="black" d="M112,-71C112,-71 12,-71 12,-71 6,-71 0,-65 0,-59 0,-59 0,-12 0,-12 0,-6 6,0 12,0 12,0 112,0 112,0 118,0 124,-6 124,-12 124,-12 124,-59 124,-59 124,-65 118,-71 112,-71"/>
<text text-anchor="start" x="14.75" y="-53.7" font-family="Helvetica,sans-Serif" font-size="14.00">entropy = 1.141</text>
<text text-anchor="start" x="21.12" y="-37.95" font-family="Helvetica,sans-Serif" font-size="14.00">samples = 82</text>
<text text-anchor="start" x="8" y="-22.2" font-family="Helvetica,sans-Serif" font-size="14.00">value = [2, 40, 40]</text>
<text text-anchor="start" x="11.38" y="-6.45" font-family="Helvetica,sans-Serif" font-size="14.00">class = Standard</text>
</g>
<!-- 2&#45;&gt;3 -->
<g id="edge3" class="edge">
<title>2&#45;&gt;3</title>
<path fill="none" stroke="black" d="M155.29,-106.7C142.74,-97.26 129.46,-87.27 116.98,-77.87"/>
<polygon fill="black" stroke="black" points="119.36,-75.28 109.27,-72.07 115.15,-80.88 119.36,-75.28"/>
</g>
<!-- 4 -->
<g id="node5" class="node">
<title>4</title>
<path fill="#67eb9e" stroke="black" d="M269.5,-71C269.5,-71 154.5,-71 154.5,-71 148.5,-71 142.5,-65 142.5,-59 142.5,-59 142.5,-12 142.5,-12 142.5,-6 148.5,0 154.5,0 154.5,0 269.5,0 269.5,0 275.5,0 281.5,-6 281.5,-12 281.5,-12 281.5,-59 281.5,-59 281.5,-65 275.5,-71 269.5,-71"/>
<text text-anchor="start" x="164.75" y="-53.7" font-family="Helvetica,sans-Serif" font-size="14.00">entropy = 0.813</text>
<text text-anchor="start" x="167.38" y="-37.95" font-family="Helvetica,sans-Serif" font-size="14.00">samples = 534</text>
<text text-anchor="start" x="150.5" y="-22.2" font-family="Helvetica,sans-Serif" font-size="14.00">value = [13, 431, 90]</text>
<text text-anchor="start" x="161.38" y="-6.45" font-family="Helvetica,sans-Serif" font-size="14.00">class = Standard</text>
</g>
<!-- 2&#45;&gt;4 -->
<g id="edge4" class="edge">
<title>2&#45;&gt;4</title>
<path fill="none" stroke="black" d="M212,-106.7C212,-98.82 212,-90.55 212,-82.57"/>
<polygon fill="black" stroke="black" points="215.5,-82.67 212,-72.67 208.5,-82.67 215.5,-82.67"/>
</g>
<!-- 6 -->
<g id="node7" class="node">
<title>6</title>
<path fill="#4be78d" stroke="black" d="M434.25,-71C434.25,-71 311.75,-71 311.75,-71 305.75,-71 299.75,-65 299.75,-59 299.75,-59 299.75,-12 299.75,-12 299.75,-6 305.75,0 311.75,0 311.75,0 434.25,0 434.25,0 440.25,0 446.25,-6 446.25,-12 446.25,-12 446.25,-59 446.25,-59 446.25,-65 440.25,-71 434.25,-71"/>
<text text-anchor="start" x="325.75" y="-53.7" font-family="Helvetica,sans-Serif" font-size="14.00">entropy = 0.521</text>
<text text-anchor="start" x="324.62" y="-37.95" font-family="Helvetica,sans-Serif" font-size="14.00">samples = 1575</text>
<text text-anchor="start" x="307.75" y="-22.2" font-family="Helvetica,sans-Serif" font-size="14.00">value = [66, 1435, 74]</text>
<text text-anchor="start" x="322.38" y="-6.45" font-family="Helvetica,sans-Serif" font-size="14.00">class = Standard</text>
</g>
<!-- 5&#45;&gt;6 -->
<g id="edge6" class="edge">
<title>5&#45;&gt;6</title>
<path fill="none" stroke="black" d="M410.32,-106.7C405.88,-98.36 401.22,-89.59 396.75,-81.18"/>
<polygon fill="black" stroke="black" points="399.92,-79.68 392.13,-72.49 393.74,-82.97 399.92,-79.68"/>
</g>
<!-- 7 -->
<g id="node8" class="node">
<title>7</title>
<path fill="#9af2bf" stroke="black" d="M576,-71C576,-71 476,-71 476,-71 470,-71 464,-65 464,-59 464,-59 464,-12 464,-12 464,-6 470,0 476,0 476,0 576,0 576,0 582,0 588,-6 588,-12 588,-12 588,-59 588,-59 588,-65 582,-71 576,-71"/>
<text text-anchor="start" x="478.75" y="-53.7" font-family="Helvetica,sans-Serif" font-size="14.00">entropy = 0.914</text>
<text text-anchor="start" x="485.12" y="-37.95" font-family="Helvetica,sans-Serif" font-size="14.00">samples = 76</text>
<text text-anchor="start" x="472" y="-22.2" font-family="Helvetica,sans-Serif" font-size="14.00">value = [25, 51, 0]</text>
<text text-anchor="start" x="475.38" y="-6.45" font-family="Helvetica,sans-Serif" font-size="14.00">class = Standard</text>
</g>
<!-- 5&#45;&gt;7 -->
<g id="edge7" class="edge">
<title>5&#45;&gt;7</title>
<path fill="none" stroke="black" d="M468.16,-106.7C475.41,-97.9 483.06,-88.62 490.33,-79.8"/>
<polygon fill="black" stroke="black" points="492.83,-82.27 496.48,-72.33 487.42,-77.82 492.83,-82.27"/>
</g>
<!-- 9 -->
<g id="node10" class="node">
<title>9</title>
<path fill="#89f0b4" stroke="black" d="M792.25,-193.75C792.25,-193.75 681.75,-193.75 681.75,-193.75 675.75,-193.75 669.75,-187.75 669.75,-181.75 669.75,-181.75 669.75,-119 669.75,-119 669.75,-113 675.75,-107 681.75,-107 681.75,-107 792.25,-107 792.25,-107 798.25,-107 804.25,-113 804.25,-119 804.25,-119 804.25,-181.75 804.25,-181.75 804.25,-187.75 798.25,-193.75 792.25,-193.75"/>
<text text-anchor="start" x="677.75" y="-176.45" font-family="Helvetica,sans-Serif" font-size="14.00">residual sugar ≤ 5.6</text>
<text text-anchor="start" x="689.75" y="-160.7" font-family="Helvetica,sans-Serif" font-size="14.00">entropy = 1.206</text>
<text text-anchor="start" x="692.38" y="-144.95" font-family="Helvetica,sans-Serif" font-size="14.00">samples = 106</text>
<text text-anchor="start" x="679.25" y="-129.2" font-family="Helvetica,sans-Serif" font-size="14.00">value = [22, 72, 12]</text>
<text text-anchor="start" x="686.38" y="-113.45" font-family="Helvetica,sans-Serif" font-size="14.00">class = Standard</text>
</g>
<!-- 8&#45;&gt;9 -->
<g id="edge9" class="edge">
<title>8&#45;&gt;9</title>
<path fill="none" stroke="black" d="M737,-229.55C737,-221.71 737,-213.42 737,-205.29"/>
<polygon fill="black" stroke="black" points="740.5,-205.48 737,-195.48 733.5,-205.48 740.5,-205.48"/>
</g>
<!-- 12 -->
<g id="node13" class="node">
<title>12</title>
<path fill="#c6f8db" stroke="black" d="M1035.25,-193.75C1035.25,-193.75 912.75,-193.75 912.75,-193.75 906.75,-193.75 900.75,-187.75 900.75,-181.75 900.75,-181.75 900.75,-119 900.75,-119 900.75,-113 906.75,-107 912.75,-107 912.75,-107 1035.25,-107 1035.25,-107 1041.25,-107 1047.25,-113 1047.25,-119 1047.25,-119 1047.25,-181.75 1047.25,-181.75 1047.25,-187.75 1041.25,-193.75 1035.25,-193.75"/>
<text text-anchor="start" x="924.88" y="-176.45" font-family="Helvetica,sans-Serif" font-size="14.00">alcohol ≤ 11.742</text>
<text text-anchor="start" x="926.75" y="-160.7" font-family="Helvetica,sans-Serif" font-size="14.00">entropy = 1.059</text>
<text text-anchor="start" x="925.62" y="-144.95" font-family="Helvetica,sans-Serif" font-size="14.00">samples = 1545</text>
<text text-anchor="start" x="908.75" y="-129.2" font-family="Helvetica,sans-Serif" font-size="14.00">value = [18, 895, 632]</text>
<text text-anchor="start" x="923.38" y="-113.45" font-family="Helvetica,sans-Serif" font-size="14.00">class = Standard</text>
</g>
<!-- 8&#45;&gt;12 -->
<g id="edge12" class="edge">
<title>8&#45;&gt;12</title>
<path fill="none" stroke="black" d="M818.89,-230.4C841.97,-218.64 867.1,-205.84 890.28,-194.03"/>
<polygon fill="black" stroke="black" points="891.76,-197.2 899.09,-189.54 888.59,-190.96 891.76,-197.2"/>
</g>
<!-- 10 -->
<g id="node11" class="node">
<title>10</title>
<path fill="#89f0b4" stroke="black" d="M718,-71C718,-71 618,-71 618,-71 612,-71 606,-65 606,-59 606,-59 606,-12 606,-12 606,-6 612,0 618,0 618,0 718,0 718,0 724,0 730,-6 730,-12 730,-12 730,-59 730,-59 730,-65 724,-71 718,-71"/>
<text text-anchor="start" x="620.75" y="-53.7" font-family="Helvetica,sans-Serif" font-size="14.00">entropy = 1.104</text>
<text text-anchor="start" x="627.12" y="-37.95" font-family="Helvetica,sans-Serif" font-size="14.00">samples = 85</text>
<text text-anchor="start" x="614" y="-22.2" font-family="Helvetica,sans-Serif" font-size="14.00">value = [21, 59, 5]</text>
<text text-anchor="start" x="617.38" y="-6.45" font-family="Helvetica,sans-Serif" font-size="14.00">class = Standard</text>
</g>
<!-- 9&#45;&gt;10 -->
<g id="edge10" class="edge">
<title>9&#45;&gt;10</title>
<path fill="none" stroke="black" d="M710.91,-106.7C705.76,-98.27 700.33,-89.39 695.14,-80.9"/>
<polygon fill="black" stroke="black" points="698.18,-79.16 689.98,-72.45 692.2,-82.81 698.18,-79.16"/>
</g>
<!-- 11 -->
<g id="node12" class="node">
<title>11</title>
<path fill="#aaf4c9" stroke="black" d="M853.62,-71C853.62,-71 760.38,-71 760.38,-71 754.38,-71 748.38,-65 748.38,-59 748.38,-59 748.38,-12 748.38,-12 748.38,-6 754.38,0 760.38,0 760.38,0 853.62,0 853.62,0 859.62,0 865.62,-6 865.62,-12 865.62,-12 865.62,-59 865.62,-59 865.62,-65 859.62,-71 853.62,-71"/>
<text text-anchor="start" x="759.75" y="-53.7" font-family="Helvetica,sans-Serif" font-size="14.00">entropy = 1.166</text>
<text text-anchor="start" x="766.12" y="-37.95" font-family="Helvetica,sans-Serif" font-size="14.00">samples = 21</text>
<text text-anchor="start" x="756.75" y="-22.2" font-family="Helvetica,sans-Serif" font-size="14.00">value = [1, 13, 7]</text>
<text text-anchor="start" x="756.38" y="-6.45" font-family="Helvetica,sans-Serif" font-size="14.00">class = Standard</text>
</g>
<!-- 9&#45;&gt;11 -->
<g id="edge11" class="edge">
<title>9&#45;&gt;11</title>
<path fill="none" stroke="black" d="M763.46,-106.7C768.7,-98.27 774.2,-89.39 779.46,-80.9"/>
<polygon fill="black" stroke="black" points="782.41,-82.79 784.71,-72.44 776.46,-79.1 782.41,-82.79"/>
</g>
<!-- 13 -->
<g id="node14" class="node">
<title>13</title>
<path fill="#96f1bc" stroke="black" d="M1052.12,-71C1052.12,-71 895.88,-71 895.88,-71 889.88,-71 883.88,-65 883.88,-59 883.88,-59 883.88,-12 883.88,-12 883.88,-6 889.88,0 895.88,0 895.88,0 1052.12,0 1052.12,0 1058.12,0 1064.12,-6 1064.12,-12 1064.12,-12 1064.12,-59 1064.12,-59 1064.12,-65 1058.12,-71 1052.12,-71"/>
<text text-anchor="start" x="930.5" y="-53.7" font-family="Helvetica,sans-Serif" font-size="14.00">entropy = 1.01</text>
<text text-anchor="start" x="929.38" y="-37.95" font-family="Helvetica,sans-Serif" font-size="14.00">samples = 846</text>
<text text-anchor="start" x="891.88" y="-22.2" font-family="Helvetica,sans-Serif" font-size="14.00">value = [15.0, 570.0, 261.0]</text>
<text text-anchor="start" x="923.38" y="-6.45" font-family="Helvetica,sans-Serif" font-size="14.00">class = Standard</text>
</g>
<!-- 12&#45;&gt;13 -->
<g id="edge13" class="edge">
<title>12&#45;&gt;13</title>
<path fill="none" stroke="black" d="M974,-106.7C974,-98.82 974,-90.55 974,-82.57"/>
<polygon fill="black" stroke="black" points="977.5,-82.67 974,-72.67 970.5,-82.67 977.5,-82.67"/>
</g>
<!-- 14 -->
<g id="node15" class="node">
<title>14</title>
<path fill="#f0e7fc" stroke="black" d="M1209.5,-71C1209.5,-71 1094.5,-71 1094.5,-71 1088.5,-71 1082.5,-65 1082.5,-59 1082.5,-59 1082.5,-12 1082.5,-12 1082.5,-6 1088.5,0 1094.5,0 1094.5,0 1209.5,0 1209.5,0 1215.5,0 1221.5,-6 1221.5,-12 1221.5,-12 1221.5,-59 1221.5,-59 1221.5,-65 1215.5,-71 1209.5,-71"/>
<text text-anchor="start" x="1104.75" y="-53.7" font-family="Helvetica,sans-Serif" font-size="14.00">entropy = 1.032</text>
<text text-anchor="start" x="1107.38" y="-37.95" font-family="Helvetica,sans-Serif" font-size="14.00">samples = 699</text>
<text text-anchor="start" x="1090.5" y="-22.2" font-family="Helvetica,sans-Serif" font-size="14.00">value = [3, 325, 371]</text>
<text text-anchor="start" x="1114.88" y="-6.45" font-family="Helvetica,sans-Serif" font-size="14.00">class = High</text>
</g>
<!-- 12&#45;&gt;14 -->
<g id="edge14" class="edge">
<title>12&#45;&gt;14</title>
<path fill="none" stroke="black" d="M1041.55,-106.54C1056.55,-97.03 1072.43,-86.96 1087.31,-77.52"/>
<polygon fill="black" stroke="black" points="1089.09,-80.54 1095.66,-72.23 1085.34,-74.63 1089.09,-80.54"/>
</g>
</g>
</svg>
