<?xml version="1.0" encoding="UTF-8" standalone="no"?>
<!DOCTYPE svg PUBLIC "-//W3C//DTD SVG 1.1//EN"
 "http://www.w3.org/Graphics/SVG/1.1/DTD/svg11.dtd">
<!-- Generated by graphviz version 12.2.1 (20241206.2353)
 -->
<!-- Title: Tree Pages: 1 -->
<svg width="645pt" height="325pt"
 viewBox="0.00 0.00 644.50 324.50" xmlns="http://www.w3.org/2000/svg" xmlns:xlink="http://www.w3.org/1999/xlink">
<g id="graph0" class="graph" transform="scale(1 1) rotate(0) translate(4 320.5)">
<title>Tree</title>
<polygon fill="white" stroke="none" points="-4,4 -4,-320.5 640.5,-320.5 640.5,4 -4,4"/>
<!-- 0 -->
<g id="node1" class="node">
<title>0</title>
<path fill="#79edaa" stroke="black" d="M391,-316.5C391,-316.5 253.5,-316.5 253.5,-316.5 247.5,-316.5 241.5,-310.5 241.5,-304.5 241.5,-304.5 241.5,-241.75 241.5,-241.75 241.5,-235.75 247.5,-229.75 253.5,-229.75 253.5,-229.75 391,-229.75 391,-229.75 397,-229.75 403,-235.75 403,-241.75 403,-241.75 403,-304.5 403,-304.5 403,-310.5 397,-316.5 391,-316.5"/>
<text text-anchor="start" x="272.75" y="-299.2" font-family="Helvetica,sans-Serif" font-size="14.00">alcohol ≤ 10.625</text>
<text text-anchor="start" x="278.75" y="-283.45" font-family="Helvetica,sans-Serif" font-size="14.00">entropy = 0.97</text>
<text text-anchor="start" x="273.88" y="-267.7" font-family="Helvetica,sans-Serif" font-size="14.00">samples = 3918</text>
<text text-anchor="start" x="249.5" y="-251.95" font-family="Helvetica,sans-Serif" font-size="14.00">value = [146, 2924, 848]</text>
<text text-anchor="start" x="271.62" y="-236.2" font-family="Helvetica,sans-Serif" font-size="14.00">class = Standard</text>
</g>
<!-- 1 -->
<g id="node2" class="node">
<title>1</title>
<path fill="#57e994" stroke="black" d="M301,-193.75C301,-193.75 163.5,-193.75 163.5,-193.75 157.5,-193.75 151.5,-187.75 151.5,-181.75 151.5,-181.75 151.5,-119 151.5,-119 151.5,-113 157.5,-107 163.5,-107 163.5,-107 301,-107 301,-107 307,-107 313,-113 313,-119 313,-119 313,-181.75 313,-181.75 313,-187.75 307,-193.75 301,-193.75"/>
<text text-anchor="start" x="165.88" y="-176.45" font-family="Helvetica,sans-Serif" font-size="14.00">volatile acidity ≤ 0.212</text>
<text text-anchor="start" x="185" y="-160.7" font-family="Helvetica,sans-Serif" font-size="14.00">entropy = 0.702</text>
<text text-anchor="start" x="183.88" y="-144.95" font-family="Helvetica,sans-Serif" font-size="14.00">samples = 2267</text>
<text text-anchor="start" x="159.5" y="-129.2" font-family="Helvetica,sans-Serif" font-size="14.00">value = [106, 1957, 204]</text>
<text text-anchor="start" x="181.62" y="-113.45" font-family="Helvetica,sans-Serif" font-size="14.00">class = Standard</text>
</g>
<!-- 0&#45;&gt;1 -->
<g id="edge1" class="edge">
<title>0&#45;&gt;1</title>
<path fill="none" stroke="black" d="M290.52,-229.55C284.13,-220.99 277.36,-211.89 270.77,-203.06"/>
<polygon fill="black" stroke="black" points="273.68,-201.11 264.9,-195.18 268.07,-205.29 273.68,-201.11"/>
<text text-anchor="middle" x="260.39" y="-213.28" font-family="Helvetica,sans-Serif" font-size="14.00">True</text>
</g>
<!-- 4 -->
<g id="node5" class="node">
<title>4</title>
<path fill="#bff7d7" stroke="black" d="M481.75,-193.75C481.75,-193.75 342.75,-193.75 342.75,-193.75 336.75,-193.75 330.75,-187.75 330.75,-181.75 330.75,-181.75 330.75,-119 330.75,-119 330.75,-113 336.75,-107 342.75,-107 342.75,-107 481.75,-107 481.75,-107 487.75,-107 493.75,-113 493.75,-119 493.75,-119 493.75,-181.75 493.75,-181.75 493.75,-187.75 487.75,-193.75 481.75,-193.75"/>
<text text-anchor="start" x="338.75" y="-176.45" font-family="Helvetica,sans-Serif" font-size="14.00">free sulfur dioxide ≤ 11.5</text>
<text text-anchor="start" x="365.38" y="-160.7" font-family="Helvetica,sans-Serif" font-size="14.00">entropy = 1.112</text>
<text text-anchor="start" x="363.88" y="-144.95" font-family="Helvetica,sans-Serif" font-size="14.00">samples = 1651</text>
<text text-anchor="start" x="347" y="-129.2" font-family="Helvetica,sans-Serif" font-size="14.00">value = [40, 967, 644]</text>
<text text-anchor="start" x="361.62" y="-113.45" font-family="Helvetica,sans-Serif" font-size="14.00">class = Standard</text>
</g>
<!-- 0&#45;&gt;4 -->
<g id="edge4" class="edge">
<title>0&#45;&gt;4</title>
<path fill="none" stroke="black" d="M353.98,-229.55C360.37,-220.99 367.14,-211.89 373.73,-203.06"/>
<polygon fill="black" stroke="black" points="376.43,-205.29 379.6,-195.18 370.82,-201.11 376.43,-205.29"/>
<text text-anchor="middle" x="384.11" y="-213.28" font-family="Helvetica,sans-Serif" font-size="14.00">False</text>
</g>
<!-- 2 -->
<g id="node3" class="node">
<title>2</title>
<path fill="#74eda7" stroke="black" d="M134.5,-71C134.5,-71 12,-71 12,-71 6,-71 0,-65 0,-59 0,-59 0,-12 0,-12 0,-6 6,0 12,0 12,0 134.5,0 134.5,0 140.5,0 146.5,-6 146.5,-12 146.5,-12 146.5,-59 146.5,-59 146.5,-65 140.5,-71 134.5,-71"/>
<text text-anchor="start" x="33.5" y="-53.7" font-family="Helvetica,sans-Serif" font-size="14.00">entropy = 0.9</text>
<text text-anchor="start" x="28.62" y="-37.95" font-family="Helvetica,sans-Serif" font-size="14.00">samples = 616</text>
<text text-anchor="start" x="8" y="-22.2" font-family="Helvetica,sans-Serif" font-size="14.00">value = [15, 471, 130]</text>
<text text-anchor="start" x="22.62" y="-6.45" font-family="Helvetica,sans-Serif" font-size="14.00">class = Standard</text>
</g>
<!-- 1&#45;&gt;2 -->
<g id="edge2" class="edge">
<title>1&#45;&gt;2</title>
<path fill="none" stroke="black" d="M172.14,-106.7C158.78,-97.22 144.64,-87.18 131.36,-77.75"/>
<polygon fill="black" stroke="black" points="133.74,-75.15 123.56,-72.21 129.68,-80.86 133.74,-75.15"/>
</g>
<!-- 3 -->
<g id="node4" class="node">
<title>3</title>
<path fill="#4ee88e" stroke="black" d="M299.5,-71C299.5,-71 177,-71 177,-71 171,-71 165,-65 165,-59 165,-59 165,-12 165,-12 165,-6 171,0 177,0 177,0 299.5,0 299.5,0 305.5,0 311.5,-6 311.5,-12 311.5,-12 311.5,-59 311.5,-59 311.5,-65 305.5,-71 299.5,-71"/>
<text text-anchor="start" x="191" y="-53.7" font-family="Helvetica,sans-Serif" font-size="14.00">entropy = 0.568</text>
<text text-anchor="start" x="189.88" y="-37.95" font-family="Helvetica,sans-Serif" font-size="14.00">samples = 1651</text>
<text text-anchor="start" x="173" y="-22.2" font-family="Helvetica,sans-Serif" font-size="14.00">value = [91, 1486, 74]</text>
<text text-anchor="start" x="187.62" y="-6.45" font-family="Helvetica,sans-Serif" font-size="14.00">class = Standard</text>
</g>
<!-- 1&#45;&gt;3 -->
<g id="edge3" class="edge">
<title>1&#45;&gt;3</title>
<path fill="none" stroke="black" d="M234.52,-106.7C234.94,-98.82 235.38,-90.55 235.8,-82.57"/>
<polygon fill="black" stroke="black" points="239.29,-82.84 236.33,-72.67 232.3,-82.47 239.29,-82.84"/>
</g>
<!-- 5 -->
<g id="node6" class="node">
<title>5</title>
<path fill="#89f0b4" stroke="black" d="M460,-71C460,-71 352.5,-71 352.5,-71 346.5,-71 340.5,-65 340.5,-59 340.5,-59 340.5,-12 340.5,-12 340.5,-6 346.5,0 352.5,0 352.5,0 460,0 460,0 466,0 472,-6 472,-12 472,-12 472,-59 472,-59 472,-65 466,-71 460,-71"/>
<text text-anchor="start" x="359" y="-53.7" font-family="Helvetica,sans-Serif" font-size="14.00">entropy = 1.206</text>
<text text-anchor="start" x="361.62" y="-37.95" font-family="Helvetica,sans-Serif" font-size="14.00">samples = 106</text>
<text text-anchor="start" x="348.5" y="-22.2" font-family="Helvetica,sans-Serif" font-size="14.00">value = [22, 72, 12]</text>
<text text-anchor="start" x="355.62" y="-6.45" font-family="Helvetica,sans-Serif" font-size="14.00">class = Standard</text>
</g>
<!-- 4&#45;&gt;5 -->
<g id="edge5" class="edge">
<title>4&#45;&gt;5</title>
<path fill="none" stroke="black" d="M409.98,-106.7C409.56,-98.82 409.12,-90.55 408.7,-82.57"/>
<polygon fill="black" stroke="black" points="412.2,-82.47 408.17,-72.67 405.21,-82.84 412.2,-82.47"/>
</g>
<!-- 6 -->
<g id="node7" class="node">
<title>6</title>
<path fill="#c6f8db" stroke="black" d="M624.5,-71C624.5,-71 502,-71 502,-71 496,-71 490,-65 490,-59 490,-59 490,-12 490,-12 490,-6 496,0 502,0 502,0 624.5,0 624.5,0 630.5,0 636.5,-6 636.5,-12 636.5,-12 636.5,-59 636.5,-59 636.5,-65 630.5,-71 624.5,-71"/>
<text text-anchor="start" x="516" y="-53.7" font-family="Helvetica,sans-Serif" font-size="14.00">entropy = 1.059</text>
<text text-anchor="start" x="514.88" y="-37.95" font-family="Helvetica,sans-Serif" font-size="14.00">samples = 1545</text>
<text text-anchor="start" x="498" y="-22.2" font-family="Helvetica,sans-Serif" font-size="14.00">value = [18, 895, 632]</text>
<text text-anchor="start" x="512.62" y="-6.45" font-family="Helvetica,sans-Serif" font-size="14.00">class = Standard</text>
</g>
<!-- 4&#45;&gt;6 -->
<g id="edge6" class="edge">
<title>4&#45;&gt;6</title>
<path fill="none" stroke="black" d="M469.34,-106.7C481.97,-97.26 495.34,-87.27 507.9,-77.87"/>
<polygon fill="black" stroke="black" points="509.76,-80.85 515.67,-72.06 505.57,-75.25 509.76,-80.85"/>
</g>
</g>
</svg>
